<svg width="234" height="116" viewBox="0 0 234 116" fill="none" xmlns="http://www.w3.org/2000/svg">
<path d="M47.12 98.0824L38.64 87.9224C36.2933 88.5091 33.8933 88.8024 31.44 88.8024C26.2133 88.8024 21.4133 87.5758 17.04 85.1224C12.6667 82.6691 9.2 79.2824 6.64 74.9624C4.08 70.5891 2.8 65.6558 2.8 60.1624C2.8 54.7224 4.08 49.8424 6.64 45.5224C9.2 41.1491 12.6667 37.7358 17.04 35.2824C21.4133 32.8291 26.2133 31.6024 31.44 31.6024C36.72 31.6024 41.52 32.8291 45.84 35.2824C50.2133 37.7358 53.6533 41.1491 56.16 45.5224C58.72 49.8424 60 54.7224 60 60.1624C60 65.1224 58.9333 69.6558 56.8 73.7624C54.72 77.8158 51.8667 81.1224 48.24 83.6824L61.04 98.0824H47.12ZM14.32 60.1624C14.32 63.8958 15.04 67.1758 16.48 70.0024C17.92 72.8291 19.92 75.0158 22.48 76.5624C25.0933 78.0558 28.08 78.8024 31.44 78.8024C34.8 78.8024 37.76 78.0558 40.32 76.5624C42.88 75.0158 44.88 72.8291 46.32 70.0024C47.76 67.1758 48.48 63.8958 48.48 60.1624C48.48 56.4291 47.76 53.1758 46.32 50.4024C44.88 47.5758 42.88 45.4158 40.32 43.9224C37.76 42.4291 34.8 41.6824 31.44 41.6824C28.08 41.6824 25.0933 42.4291 22.48 43.9224C19.92 45.4158 17.92 47.5758 16.48 50.4024C15.04 53.1758 14.32 56.4291 14.32 60.1624ZM110.329 43.9224V88.2424H99.0488V82.6424C97.6088 84.5624 95.7154 86.0824 93.3688 87.2024C91.0754 88.2691 88.5688 88.8024 85.8488 88.8024C82.3821 88.8024 79.3154 88.0824 76.6488 86.6424C73.9821 85.1491 71.8754 82.9891 70.3288 80.1624C68.8354 77.2824 68.0888 73.8691 68.0888 69.9224V43.9224H79.2888V68.3224C79.2888 71.8424 80.1688 74.5624 81.9288 76.4824C83.6888 78.3491 86.0888 79.2824 89.1288 79.2824C92.2221 79.2824 94.6488 78.3491 96.4088 76.4824C98.1688 74.5624 99.0488 71.8424 99.0488 68.3224V43.9224H110.329ZM127.059 38.6424C125.086 38.6424 123.433 38.0291 122.099 36.8024C120.819 35.5224 120.179 33.9491 120.179 32.0824C120.179 30.2158 120.819 28.6691 122.099 27.4424C123.433 26.1624 125.086 25.5224 127.059 25.5224C129.033 25.5224 130.659 26.1624 131.939 27.4424C133.273 28.6691 133.939 30.2158 133.939 32.0824C133.939 33.9491 133.273 35.5224 131.939 36.8024C130.659 38.0291 129.033 38.6424 127.059 38.6424ZM132.579 43.9224V88.2424H121.379V43.9224H132.579Z" fill="black"/>
<path d="M154.72 29.0424V88.2424H143.52V29.0424H154.72ZM176.986 29.0424V88.2424H165.786V29.0424H176.986ZM207.731 88.9624C203.465 88.9624 199.625 88.0291 196.211 86.1624C192.798 84.2424 190.105 81.5491 188.131 78.0824C186.211 74.6158 185.251 70.6158 185.251 66.0824C185.251 61.5491 186.238 57.5491 188.211 54.0824C190.238 50.6158 192.985 47.9491 196.451 46.0824C199.918 44.1624 203.785 43.2024 208.051 43.2024C212.318 43.2024 216.185 44.1624 219.651 46.0824C223.118 47.9491 225.838 50.6158 227.811 54.0824C229.838 57.5491 230.851 61.5491 230.851 66.0824C230.851 70.6158 229.811 74.6158 227.731 78.0824C225.705 81.5491 222.931 84.2424 219.411 86.1624C215.945 88.0291 212.051 88.9624 207.731 88.9624ZM207.731 79.2024C209.758 79.2024 211.651 78.7224 213.411 77.7624C215.225 76.7491 216.665 75.2558 217.731 73.2824C218.798 71.3091 219.331 68.9091 219.331 66.0824C219.331 61.8691 218.211 58.6424 215.971 56.4024C213.785 54.1091 211.091 52.9624 207.891 52.9624C204.691 52.9624 201.998 54.1091 199.811 56.4024C197.678 58.6424 196.611 61.8691 196.611 66.0824C196.611 70.2958 197.651 73.5491 199.731 75.8424C201.865 78.0824 204.531 79.2024 207.731 79.2024Z" fill="#570229"/>
<circle cx="127" cy="32" r="7" fill="#570229"/>
</svg>
